<svg version="1.1" id="category-emblem-online-dharma" xmlns="http://www.w3.org/2000/svg" x="0" y="0" viewBox="0 0 171.7798 171.7817" xml:space="preserve"><style type="text/css"><![CDATA[
	.css-to-be-replaced{}
  ]]></style><g fill="#935702"><path d="M133.996 78.274a.85.85 0 0 0 .972.707l35.048-5.552c.464-.073.78-.509.707-.973s-.51-.787-.973-.707l-35.047 5.552a.85.85 0 0 0-.707.973zm36.934 6.769h-35.487a.85.85 0 0 0 0 1.7h35.486a.85.85 0 0 0 0-1.7zM78.137 37.796a.85.85 0 0 0 .84-.983l-5.55-35.048a.85.85 0 1 0-1.68.266l5.55 35.048a.85.85 0 0 0 .84.717zm22.803 1.774a.85.85 0 0 0 1.071-.546l10.967-33.75a.85.85 0 1 0-1.617-.524l-10.966 33.749a.85.85 0 0 0 .546 1.071zm7.059 2.93a.85.85 0 0 0 1.144-.372l16.113-31.622a.85.85 0 0 0-1.515-.773l-16.114 31.623a.851.851 0 0 0 .372 1.144zM93.51 37.786a.85.85 0 0 0 .973-.707l5.552-35.05a.85.85 0 1 0-1.68-.266l-5.552 35.05a.85.85 0 0 0 .707.973zm-7.62-.598c.47 0 .85-.38.85-.85V.85a.85.85 0 0 0-1.701 0v35.486c0 .47.38.851.85.851zm43.39 26.596a.851.851 0 0 0 1.144.372l31.624-16.114a.851.851 0 0 0-.773-1.515L129.652 62.64a.85.85 0 0 0-.372 1.144zm-14.768-17.287a.85.85 0 0 0 1.188-.188l20.865-28.717a.85.85 0 0 0-1.376-1l-20.865 28.717a.85.85 0 0 0 .188 1.188zm10.773 10.773a.85.85 0 0 0 1.188.188l28.717-20.864a.85.85 0 0 0-1-1.376l-28.717 20.864a.85.85 0 0 0-.188 1.188zm-4.956-5.816a.847.847 0 0 0 1.202 0l25.094-25.095a.85.85 0 1 0-1.203-1.202l-25.094 25.095a.85.85 0 0 0 0 1.202zm11.881 19.388a.85.85 0 0 0 1.072.546l33.748-10.966a.85.85 0 1 0-.525-1.617L132.756 69.77a.85.85 0 0 0-.546 1.07zM37.188 85.891a.85.85 0 0 0-.851-.85H.85a.85.85 0 0 0 0 1.7h35.486c.47 0 .85-.38.85-.85zM1.765 73.43l35.047 5.549a.85.85 0 0 0 .266-1.68L2.03 71.75a.85.85 0 0 0-.266 1.68zM4.75 60.422l33.748 10.966a.85.85 0 0 0 .525-1.617L5.275 58.804a.85.85 0 1 0-.525 1.617zM9.733 48.04l31.622 16.116a.85.85 0 1 0 .773-1.516L10.505 46.525a.85.85 0 0 0-.773 1.516zm46.347-1.732a.85.85 0 1 0 1.376-1L36.593 16.592a.851.851 0 0 0-1.376 1L56.08 46.308zm6.558-4.18a.851.851 0 0 0 1.515-.772L48.04 9.733a.85.85 0 0 0-1.515.773l16.113 31.622zm-17.33 15.331a.85.85 0 0 0 1-1.376L17.59 35.216a.85.85 0 1 0-1 1.376l28.717 20.865zm4.942-6.006a.847.847 0 0 0 1.202 0 .85.85 0 0 0 0-1.203L26.36 25.156a.85.85 0 1 0-1.203 1.202L50.25 51.453zm19.518-12.429a.85.85 0 1 0 1.617-.525L60.42 4.749a.85.85 0 1 0-1.617.526l10.966 33.75zm-52.679 88.033a.85.85 0 0 0-.687.987l.915 5.094a.85.85 0 0 0 1.674-.3l-.915-5.094a.853.853 0 0 0-.987-.687zm7.915.341l-.028-.001a.85.85 0 0 0-.85.822l-.08 2.392a.85.85 0 0 0 1.701.056l.08-2.391a.85.85 0 0 0-.823-.878zm6.853 2.78a.85.85 0 0 0 .806-1.121l-.073-.217a.85.85 0 0 0-1.612.541l.073.217a.85.85 0 0 0 .806.58z"/><path d="M163.638 94.198a.85.85 0 0 0 0 1.701c1.785 0 3.7 1.125 3.729 3.584-.116.85-.522 1.486-1.248 1.937-2.207 1.37-7.093.977-12.754-1.026-4.96-1.755-8.085-1.004-9.831-.063-1.704.917-2.89 2.423-3.34 4.242-.046.187-.078.37-.11.552 0 .003-.002.005-.003.008l-.005.032a92.437 92.437 0 0 0-.943 7.975c-.256 3.178-.373 4.569-2.218 8.352-8.98.799-17.22 2.368-21.632 5.282-12.507-1.805-21.275 7.315-23.618 10.087-2.699-2.794-4.924-5.298-4.924-8.542a.85.85 0 0 0-1.7 0c0 3.25-2.233 5.756-4.936 8.555-2.324-2.758-11.085-11.909-23.606-10.1-4.412-2.914-12.652-4.483-21.632-5.282-1.845-3.783-1.962-5.174-2.218-8.352a92.479 92.479 0 0 0-.943-7.975l-.005-.031c0-.003-.003-.006-.003-.008a7.788 7.788 0 0 0-.11-.553c-.45-1.818-1.637-3.325-3.341-4.243-1.747-.94-4.87-1.692-9.83.064-5.66 2.002-10.548 2.399-12.754 1.027-.727-.452-1.133-1.088-1.248-1.937.028-2.46 1.944-3.585 3.729-3.585a.85.85 0 0 0 0-1.701c-2.7 0-5.435 1.833-5.435 5.336 0 .032.007.06.007.093v.008l.001.01c.046 3.128 1.945 5.121 3.79 7.046 1.557 1.625 3.018 3.175 3.232 5.322a8.898 8.898 0 0 0-2.113 1.463c-1.461 1.388-1.982 3.036-1.982 4.115 0 1.074.232 1.933.746 2.616 1.944 4.252 2.64 8.542 3.197 11.99.865 5.344 1.548 9.563 6.263 9.562 0 0 1.835.058 3.207.058 4.814 0 4.94.985 5.277 3.62.264 2.057.625 4.873 3.24 8.188 1.687 2.138 4.788 3.324 8.019 3.324 1.408 0 2.836-.24 4.187-.712 1.746 2.925 4.813 5.316 9.382 5.316.777 0 1.598-.069 2.461-.216 2.22-.38 3.317-.722 4.337-1.37 1.205 2.418 2.883 4.451 4.918 5.859 2.194 1.517 4.68 2.28 7.421 2.28.982 0 1.996-.098 3.042-.294.89-.168 1.84-.481 2.823-.92.402.494.827.965 1.3 1.39 3.452 3.117 7.773 3.5 9.692 3.5.32 0 .563-.01.735-.021.17.01.415.02.734.02 1.92 0 6.24-.383 9.693-3.498a12.47 12.47 0 0 0 1.299-1.39c.983.438 1.932.751 2.824.92 1.045.196 2.06.293 3.041.293 2.741 0 5.227-.763 7.421-2.28 2.035-1.408 3.713-3.441 4.918-5.86 1.02.649 2.117.99 4.338 1.37.864.148 1.683.217 2.46.217 4.569 0 7.636-2.39 9.382-5.316a12.78 12.78 0 0 0 4.188.712c3.23 0 6.331-1.186 8.018-3.324 2.615-3.315 2.976-6.131 3.24-8.188.337-2.635.464-3.62 5.277-3.62 1.364 0 3.187-.057 3.181-.057 4.741 0 5.424-4.22 6.289-9.562.557-3.449 1.253-7.74 3.198-11.99.513-.684.746-1.543.746-2.617 0-1.079-.521-2.727-1.983-4.115a8.89 8.89 0 0 0-2.113-1.463c.215-2.147 1.675-3.697 3.233-5.322 1.845-1.925 3.744-3.918 3.79-7.047l.001-.008v-.009c0-.032.007-.06.007-.093 0-3.503-2.735-5.336-5.435-5.336zM7.734 105.514c-.678-.708-1.337-1.402-1.89-2.137 2.89 1.042 7.66.56 13.14-1.38 4.374-1.548 7.013-.948 8.457-.17 1.276.688 2.162 1.807 2.495 3.154.346 1.4.163 2.544-.544 3.4-.916 1.109-3.248 2.365-9.154 2.059-3.579-.183-6.533.125-8.86.902-.414-2.449-2.05-4.164-3.644-5.828zm-.389 12.077c0-.153.04-1.54 1.452-2.881.49-.465 1.183-.95 2.141-1.376a.842.842 0 0 0 .053-.024c1.86-.814 4.727-1.4 9.159-1.17 5.215.268 8.723-.6 10.451-2.574.17 1.479.269 2.671.353 3.71.238 2.96.375 4.613 1.955 8.056-5.75-.438-11.705-.584-17.075-.584-8.489 0-8.489-1.677-8.489-3.157zm11.394 22.523a133.78 133.78 0 0 1-2.863-.055c-3.154 0-3.72-2.64-4.61-8.133-.477-2.952-1.064-6.505-2.416-10.182 1.597.494 3.86.705 6.983.705 20.287 0 34.46 2.087 39.932 5.876 4.718 4.41 4.18 7.817 2.462 11.637-1.114-1.761-8.539-12.62-20.444-9.575a.852.852 0 0 0-.43 1.383c2.027 2.325 2.647 3.99 2.604 5.578-3.062-2.011-11.529-6.01-21.218 2.766zm19.651 12.82c.156.594.365 1.191.616 1.782-3.712 1.194-8.168.299-10.097-2.144-2.323-2.946-2.636-5.389-2.888-7.352-.35-2.731-.81-4.55-4.793-4.997 9.206-7.273 16.663-2.398 18.422-1.03a28.98 28.98 0 0 1-.582 1.781c-.973 2.773-2.183 6.223-.678 11.96zm12.947 6.727c-5.346.909-8.684-1.556-10.363-4.742-.007-.02-.004-.042-.013-.062-.02-.046-.055-.079-.081-.12a11.483 11.483 0 0 1-.845-2.235c-1.373-5.233-.305-8.278.638-10.964 1.057-3.012 1.981-5.646-1.142-9.785 4.367-.733 8.515.474 12.358 3.603 3.216 2.619 4.998 5.669 5.015 5.7a.838.838 0 0 0 .615.402l-.446.893c-1.743 3.478-3.72 7.42-2.85 12.331a19.777 19.777 0 0 0 1.041 3.708c-.782.546-1.547.862-3.927 1.27zm19.69 6.48c-3.502.653-6.59.078-9.18-1.714-3.022-2.09-5.19-5.75-5.95-10.042-.771-4.355.992-7.87 2.697-11.271 2.268-4.525 4.608-9.193-.468-14.818 11.176-.86 18.933 7.56 20.79 9.805-3.8 3.94-8.183 8.9-8.183 17.299 0 4.082.827 7.446 2.434 10.075-.75.314-1.469.54-2.14.665zm24.165.867c-3.357 3.04-7.813 3.106-9.046 3.06-.058-.006-.113-.023-.173-.018l-.082.006-.082-.006c-.06-.006-.117.012-.175.019-1.237.045-5.69-.024-9.044-3.06-2.757-2.497-4.155-6.403-4.155-11.61 0-8.179 4.427-12.741 8.334-16.767 2.06-2.123 4.039-4.168 5.122-6.54 1.083 2.372 3.062 4.417 5.122 6.54 3.907 4.026 8.334 8.588 8.334 16.768 0 5.206-1.398 9.112-4.155 11.608zm20.693-12.623c-.76 4.292-2.928 7.952-5.95 10.042-2.592 1.792-5.68 2.369-9.18 1.713a10.716 10.716 0 0 1-2.14-.665c1.607-2.63 2.433-5.992 2.433-10.075 0-8.41-4.392-13.37-8.196-17.313 1.879-2.267 9.636-10.664 20.804-9.79-5.075 5.624-2.736 10.292-.468 14.817 1.705 3.4 3.468 6.916 2.697 11.271zm15.862-1.883c-.2.76-.481 1.513-.844 2.234-.027.041-.063.074-.083.12-.009.022-.006.044-.013.065-1.68 3.183-5.017 5.646-10.362 4.74-2.38-.409-3.146-.725-3.927-1.271a19.832 19.832 0 0 0 1.042-3.708c.869-4.911-1.108-8.852-2.852-12.331-.15-.301-.3-.599-.445-.893a.836.836 0 0 0 .614-.403c.018-.03 1.8-3.08 5.016-5.7 3.842-3.128 7.99-4.335 12.357-3.602-3.123 4.14-2.199 6.773-1.142 9.785.943 2.686 2.012 5.731.64 10.964zm14.013-7.282c-.252 1.963-.565 4.406-2.888 7.352-1.93 2.442-6.386 3.337-10.097 2.144.252-.59.461-1.188.617-1.782 1.505-5.737.294-9.187-.678-11.959a29.534 29.534 0 0 1-.583-1.782c1.759-1.368 9.216-6.243 18.423 1.03-3.983.446-4.444 2.266-4.794 4.997zm14.755-13.294c-.89 5.494-1.456 8.133-4.636 8.134 0 0-1.538.047-2.836.054-9.69-8.777-18.157-4.777-21.219-2.766-.043-1.587.578-3.253 2.605-5.578a.849.849 0 0 0-.43-1.383c-11.907-3.039-19.331 7.814-20.445 9.575-1.718-3.82-2.255-7.226 2.463-11.637 5.471-3.79 19.644-5.876 39.93-5.876 3.124 0 5.388-.211 6.985-.704-1.353 3.676-1.94 7.23-2.417 10.181zm2.47-17.216c1.411 1.34 1.451 2.728 1.451 2.881 0 1.48 0 3.157-8.488 3.157-5.37 0-11.325.146-17.076.583 1.58-3.443 1.717-5.095 1.956-8.054.084-1.04.182-2.232.352-3.71 1.728 1.972 5.235 2.844 10.451 2.572 4.432-.228 7.3.358 9.16 1.172a.829.829 0 0 0 .052.022c.959.426 1.651.912 2.141 1.377zm1.062-9.196c-1.594 1.664-3.23 3.379-3.644 5.828-2.328-.778-5.283-1.086-8.86-.902-5.913.312-8.238-.95-9.154-2.059-.706-.856-.89-2-.543-3.4.332-1.346 1.218-2.466 2.494-3.153 1.444-.779 4.084-1.378 8.458.17 5.48 1.937 10.25 2.42 13.14 1.378-.553.735-1.212 1.43-1.891 2.138z"/><path d="M154.693 127.057a.855.855 0 0 0-.987.687l-.915 5.093a.85.85 0 0 0 1.674.301l.914-5.094a.85.85 0 0 0-.686-.987zm-7.887.34l-.03.001a.85.85 0 0 0-.82.878l.078 2.391a.85.85 0 0 0 .85.823l.029-.001a.85.85 0 0 0 .821-.878l-.079-2.392a.85.85 0 0 0-.85-.822zm-42.777-71.101a33.814 33.814 0 0 0-18.128-5.28c-2.902 0-5.811.378-8.644 1.125-9.075 2.392-16.818 8.52-21.245 16.813a33.76 33.76 0 0 0-2.899 24.452c.007.041-.004.08.007.122.013.05.043.088.061.135A33.753 33.753 0 0 0 67.7 113.45a33.808 33.808 0 0 0 18.177 5.312c2.903 0 5.813-.378 8.646-1.125 9.098-2.398 16.852-8.545 21.274-16.865a33.764 33.764 0 0 0 2.843-24.516 33.752 33.752 0 0 0-14.61-19.96zm-2.657 1.379c-.175.186-.357.37-.54.555-.098.098-.191.198-.292.296-.624.608-1.29 1.2-1.998 1.775-.112.092-.231.18-.346.271-.244.194-.49.387-.743.577-.144.108-.295.213-.443.32-.17.123-.34.245-.514.366-2.768-3.673-5.897-6.497-9.15-8.212a31.385 31.385 0 0 1 14.026 4.052zm-16.39 28.773l3.323 12.61c-.155.044-.311.086-.465.132-.194.057-.383.12-.575.18-.364.112-.73.224-1.09.343-.225.075-.446.155-.67.232-.319.11-.64.22-.955.336-.237.087-.47.18-.704.269-.298.114-.596.227-.89.346-.236.095-.467.195-.7.293-.285.12-.57.24-.851.363-.234.104-.463.21-.694.317-.274.126-.548.252-.818.383-.227.11-.451.222-.675.335a40.908 40.908 0 0 0-1.447.757 44.971 44.971 0 0 0-1.394.793c-.148.087-.3.173-.445.261-2.588-3.917-4.782-8.664-6.291-13.906l15.34-4.044zm-15.99 1.577c-1.292-5.38-1.728-10.607-1.408-15.278.472.015.946.028 1.425.028 3.901 0 7.925-.518 11.976-1.489l3.346 12.696-15.34 4.043zm18.456-2.227l15.323-4.039c1.26 5.25 1.726 10.443 1.39 15.205a43.576 43.576 0 0 0-1.406-.027c-3.901 0-7.926.517-11.978 1.49l-3.329-12.629zm-.65-2.467l-3.342-12.677c.154-.044.31-.085.463-.13.182-.055.36-.114.54-.17.375-.115.75-.23 1.12-.353.215-.072.426-.148.64-.222.33-.114.66-.227.986-.346.226-.084.449-.172.673-.257.306-.117.613-.234.915-.356.23-.092.455-.19.682-.285.29-.122.58-.243.867-.37.229-.101.453-.206.68-.31.277-.127.554-.255.827-.387.225-.108.446-.22.668-.33.266-.134.532-.268.793-.405.22-.116.438-.234.655-.352a45.377 45.377 0 0 0 1.397-.794c.149-.088.3-.174.447-.263 2.605 3.928 4.813 8.696 6.33 13.963l-15.341 4.044zm-6.474-29.034c4.77 0 9.792 3.403 14.004 8.94-.16.097-.317.194-.478.288a43.293 43.293 0 0 1-4.056 2.092 48.852 48.852 0 0 1-1.446.629c-.205.084-.41.17-.618.254-.289.116-.582.227-.875.338-.204.078-.407.156-.613.232-.31.112-.624.22-.938.328-.195.067-.389.136-.586.201-.346.114-.698.222-1.05.33-.168.052-.336.108-.506.158-.118.035-.238.066-.356.1L79.164 54.37a9.52 9.52 0 0 1 1.16-.074zm-3.626.728l3.636 13.794c-3.837.916-7.643 1.404-11.325 1.404-.396 0-.777-.027-1.167-.038 1.013-7.508 4.128-13.206 8.856-15.16zm-7.36 3.297c-1.992 3.097-3.348 7.122-3.972 11.717-.48-.045-.965-.084-1.432-.145-.142-.019-.282-.04-.422-.06a32.39 32.39 0 0 1-2.15-.379c-.08-.017-.158-.038-.239-.056-.674-.15-1.329-.32-1.96-.512-.052-.015-.106-.029-.158-.045a31.453 31.453 0 0 1 10.333-10.52zM57.765 71.128c.029.01.06.016.09.025.726.236 1.484.444 2.263.63l.39.092a34.37 34.37 0 0 0 2.386.447c.141.021.283.04.425.06a38.61 38.61 0 0 0 1.78.207c-.368 4.957.072 10.451 1.427 16.086L55.31 91.63a31.196 31.196 0 0 1 2.455-20.503zm11.898 38.026c-.151.144-.304.287-.45.433-.191.19-.373.381-.556.573-.138.146-.28.29-.413.436l-.092.097A31.198 31.198 0 0 1 55.96 94.098l11.214-2.956c1.587 5.544 3.876 10.533 6.603 14.666l-.028.02a38.007 38.007 0 0 0-1.875 1.4c-.176.14-.35.28-.522.422-.21.173-.413.35-.616.526-.163.143-.328.284-.487.428-.2.182-.393.366-.586.55zm.69 2.92c.159-.17.325-.339.49-.507.118-.119.23-.24.352-.357.277-.271.565-.539.86-.803.102-.093.209-.185.314-.277.264-.23.53-.461.807-.687.146-.118.298-.233.446-.35.213-.167.424-.335.643-.5.167-.125.34-.247.512-.37.154-.112.309-.223.467-.333 2.777 3.699 5.92 6.543 9.19 8.265a31.382 31.382 0 0 1-14.082-4.082zm21.102 3.408c-4.787 0-9.825-3.425-14.045-8.996.15-.09.298-.181.45-.27a42.568 42.568 0 0 1 1.3-.731 42.85 42.85 0 0 1 1.35-.699 46.051 46.051 0 0 1 2.84-1.293c.228-.096.456-.191.687-.284.263-.105.53-.207.797-.308.23-.088.46-.177.692-.262.283-.102.57-.2.855-.299.222-.076.441-.154.665-.228.323-.107.652-.207.98-.309.192-.059.381-.121.574-.178.118-.035.238-.066.355-.1l3.66 13.883a9.52 9.52 0 0 1-1.16.074zm3.626-.729l-3.654-13.86c3.839-.916 7.645-1.404 11.328-1.404.388 0 .76.027 1.142.037-.19 1.38-.429 2.726-.764 4.002-1.514 5.762-4.35 9.686-8.052 11.225zm7.484-3.376c1.278-2.002 2.304-4.417 3.036-7.2.376-1.434.644-2.947.849-4.499.472.044.95.083 1.41.144.14.018.279.039.418.059.738.107 1.462.232 2.16.383.083.018.162.04.244.058.678.152 1.335.324 1.969.517.051.015.104.029.155.045a31.44 31.44 0 0 1-10.24 10.493zm11.477-12.78c-.032-.01-.067-.017-.098-.027a29.16 29.16 0 0 0-2.26-.631c-.131-.032-.262-.064-.395-.094a34.23 34.23 0 0 0-2.395-.451c-.14-.022-.28-.04-.42-.06a37.92 37.92 0 0 0-1.77-.208c.352-5.038-.14-10.507-1.467-16.017l11.232-2.96a31.198 31.198 0 0 1-2.427 20.448zm-9.437-19.96c-1.594-5.569-3.896-10.578-6.64-14.722l.025-.017a39.2 39.2 0 0 0 1.853-1.382c.182-.144.363-.288.54-.434.202-.167.398-.337.594-.507.17-.148.342-.295.508-.445.192-.174.377-.35.563-.526.159-.151.32-.301.473-.454.183-.18.357-.364.532-.547.146-.152.294-.303.435-.457l.089-.093a31.192 31.192 0 0 1 12.242 16.628l-11.214 2.957z"/></g></svg>