<svg version="1.1" id="category-emblem-translation" xmlns="http://www.w3.org/2000/svg" x="0" y="0" viewBox="0 0 171.7793 171.7817" xml:space="preserve"><style type="text/css"><![CDATA[
	.css-to-be-replaced{}
  ]]></style><g fill="#EB5E0B"><path d="M133.995 78.274a.85.85 0 0 0 .973.707l35.048-5.552c.464-.073.78-.509.707-.973s-.507-.787-.973-.707l-35.048 5.552a.85.85 0 0 0-.707.973zm36.934 6.769h-35.486a.85.85 0 0 0 0 1.7h35.486a.85.85 0 0 0 0-1.7zM78.137 37.796a.85.85 0 0 0 .84-.983l-5.55-35.048a.85.85 0 1 0-1.68.266l5.55 35.048a.85.85 0 0 0 .84.717zm22.804 1.774a.85.85 0 0 0 1.072-.546l10.965-33.75a.85.85 0 1 0-1.617-.524l-10.966 33.749a.85.85 0 0 0 .546 1.071zm7.058 2.93a.852.852 0 0 0 1.144-.372l16.114-31.622a.85.85 0 0 0-1.516-.773l-16.114 31.623a.85.85 0 0 0 .372 1.144zM93.51 37.786a.85.85 0 0 0 .973-.707l5.551-35.05a.85.85 0 0 0-1.68-.265l-5.551 35.049a.85.85 0 0 0 .707.973zm-7.62-.598c.47 0 .85-.38.85-.85V.85a.85.85 0 0 0-1.701 0v35.486c0 .47.38.851.85.851zm43.39 26.596a.852.852 0 0 0 1.144.372l31.623-16.114a.85.85 0 0 0-.772-1.515L129.652 62.64a.85.85 0 0 0-.372 1.144zm-14.767-17.287a.847.847 0 0 0 1.187-.188l20.864-28.717a.85.85 0 1 0-1.374-1l-20.865 28.717a.85.85 0 0 0 .188 1.188zm10.772 10.773a.847.847 0 0 0 1.188.188l28.717-20.864a.85.85 0 0 0-1-1.376l-28.717 20.864a.85.85 0 0 0-.188 1.188zm-4.957-5.816a.848.848 0 0 0 1.203 0l25.094-25.095a.85.85 0 1 0-1.203-1.202l-25.094 25.095a.85.85 0 0 0 0 1.202zm11.882 19.388a.85.85 0 0 0 1.072.546l33.748-10.966a.85.85 0 1 0-.525-1.617L132.757 69.77a.85.85 0 0 0-.546 1.07zM37.188 85.891a.85.85 0 0 0-.851-.85H.85a.85.85 0 0 0 0 1.7h35.486c.47 0 .85-.38.85-.85zM1.765 73.43l35.047 5.549a.85.85 0 0 0 .266-1.68L2.03 71.75a.85.85 0 1 0-.265 1.68zM4.75 60.422l33.748 10.966a.85.85 0 1 0 .525-1.618L5.275 58.805a.85.85 0 1 0-.525 1.617zM9.733 48.04l31.622 16.116a.852.852 0 0 0 .771-1.516l-31.62-16.115a.85.85 0 1 0-.772 1.516zm46.348-1.732a.847.847 0 0 0 1.188.188.85.85 0 0 0 .187-1.188L36.593 16.592a.85.85 0 1 0-1.375 1L56.08 46.308zm6.557-4.18a.852.852 0 0 0 1.143.372.85.85 0 0 0 .372-1.144L48.041 9.733a.851.851 0 0 0-1.516.773l16.113 31.622zm-17.33 15.331a.847.847 0 0 0 1.187-.189.85.85 0 0 0-.187-1.188L17.59 35.218a.85.85 0 1 0-1 1.376l28.717 20.865zm4.941-6.006a.847.847 0 0 0 1.203 0 .85.85 0 0 0 0-1.203L26.36 25.156a.85.85 0 1 0-1.203 1.202L50.25 51.453zm19.52-12.429a.85.85 0 1 0 1.617-.525L60.42 4.749a.85.85 0 0 0-1.617.526l10.966 33.75zm-52.68 88.033a.85.85 0 0 0-.687.987l.914 5.094a.85.85 0 1 0 1.674-.3l-.914-5.094a.853.853 0 0 0-.987-.687zm7.916.341c-.443-.041-.863.352-.878.821l-.08 2.392a.85.85 0 1 0 1.7.056l.08-2.391a.85.85 0 0 0-.822-.878zm6.852 2.78a.85.85 0 0 0 .806-1.123l-.073-.217a.85.85 0 1 0-1.611.545l.073.217a.85.85 0 0 0 .805.578z"/><path d="M163.638 94.198a.85.85 0 0 0 0 1.701c1.784 0 3.7 1.125 3.728 3.583-.114.85-.52 1.487-1.248 1.938-2.206 1.373-7.094.976-12.752-1.026-4.963-1.756-8.085-1.004-9.833-.063-1.703.918-2.889 2.424-3.338 4.242a7.787 7.787 0 0 0-.108.543c-.002.006-.006.011-.007.017l-.01.068-.024.15a92.276 92.276 0 0 0-.913 7.788c-.256 3.178-.373 4.57-2.219 8.353-8.98.798-17.22 2.368-21.631 5.282-12.505-1.805-21.275 7.315-23.619 10.087-2.698-2.794-4.923-5.298-4.923-8.542a.85.85 0 0 0-1.701 0c0 3.249-2.232 5.756-4.936 8.554-2.323-2.757-11.081-11.905-23.606-10.099-4.412-2.914-12.651-4.484-21.632-5.282-1.844-3.782-1.96-5.173-2.217-8.35a92.839 92.839 0 0 0-.94-7.955l-.008-.054c0-.005-.004-.008-.005-.013a7.78 7.78 0 0 0-.11-.547c-.449-1.819-1.635-3.325-3.34-4.243-1.743-.938-4.865-1.692-9.83.064-5.663 2.003-10.548 2.397-12.753 1.027-.727-.452-1.134-1.089-1.248-1.939.028-2.458 1.944-3.583 3.728-3.583a.85.85 0 0 0 0-1.701c-2.7 0-5.434 1.833-5.434 5.336 0 .031.006.059.007.09 0 .004-.002.007-.001.011l.002.012c.047 3.127 1.946 5.12 3.79 7.044 1.557 1.625 3.018 3.175 3.233 5.323-.81.41-1.518.897-2.114 1.463-1.462 1.387-1.983 3.035-1.983 4.114 0 1.076.233 1.936.749 2.62 1.942 4.25 2.637 8.539 3.196 11.987.864 5.343 1.546 9.562 6.261 9.561 0 0 1.836.058 3.207.058 4.814 0 4.94.985 5.279 3.62.263 2.057.624 4.873 3.239 8.188 1.687 2.138 4.788 3.324 8.018 3.324 1.409 0 2.837-.241 4.188-.712 1.745 2.925 4.812 5.316 9.382 5.316.777 0 1.598-.069 2.462-.216 2.22-.38 3.317-.722 4.336-1.37 1.205 2.417 2.883 4.45 4.918 5.859 2.194 1.517 4.68 2.28 7.422 2.28.981 0 1.996-.098 3.04-.294.892-.167 1.841-.481 2.824-.92.402.494.828.965 1.3 1.391 3.452 3.116 7.773 3.499 9.692 3.499.32 0 .564-.01.735-.02.171.01.415.02.735.02 1.919 0 6.24-.384 9.692-3.499.472-.426.897-.897 1.3-1.39.983.438 1.932.752 2.823.92 1.046.196 2.06.293 3.041.293 2.741 0 5.228-.763 7.421-2.28 2.036-1.408 3.713-3.441 4.918-5.86 1.02.649 2.117.99 4.338 1.37.864.148 1.684.217 2.46.217 4.569 0 7.636-2.39 9.382-5.315 1.351.47 2.779.711 4.187.711 3.23 0 6.332-1.186 8.02-3.324 2.615-3.315 2.975-6.131 3.24-8.189.337-2.634.463-3.619 5.276-3.619 1.365 0 3.187-.056 3.181-.056 4.741 0 5.424-4.22 6.288-9.563.559-3.448 1.254-7.737 3.196-11.987.516-.684.749-1.544.749-2.62 0-1.079-.52-2.727-1.983-4.115a8.897 8.897 0 0 0-2.113-1.463c.215-2.147 1.675-3.697 3.232-5.322 1.844-1.924 3.743-3.917 3.79-7.044l.002-.012v-.011c0-.031.006-.059.006-.09 0-3.503-2.734-5.336-5.434-5.336zM7.734 105.514c-.678-.708-1.336-1.402-1.89-2.136 2.89 1.042 7.661.559 13.14-1.38 4.376-1.548 7.014-.948 8.456-.17 1.277.687 2.164 1.806 2.497 3.153.345 1.4.163 2.544-.544 3.4-.916 1.109-3.248 2.367-9.155 2.059-3.576-.182-6.531.125-8.859.903-.414-2.45-2.05-4.165-3.645-5.829zm-.39 12.077c0-.153.042-1.54 1.453-2.88.49-.465 1.18-.95 2.138-1.377a.813.813 0 0 0 .06-.027c1.86-.813 4.724-1.397 9.155-1.168 5.209.266 8.723-.6 10.451-2.573.171 1.479.27 2.672.353 3.712.238 2.959.375 4.61 1.956 8.054-5.751-.438-11.706-.584-17.076-.584-8.49 0-8.49-1.677-8.49-3.157zm11.394 22.523a134.301 134.301 0 0 1-2.862-.055c-3.153 0-3.72-2.64-4.61-8.133-.477-2.952-1.063-6.505-2.416-10.182 1.597.494 3.86.705 6.984.705 20.284 0 34.455 2.086 39.928 5.874 4.72 4.412 4.184 7.818 2.466 11.638-1.115-1.763-8.541-12.616-20.446-9.574a.852.852 0 0 0-.43 1.383c2.028 2.325 2.648 3.991 2.605 5.578-3.062-2.01-11.527-6.01-21.22 2.766zm19.653 12.82c.155.594.364 1.191.616 1.782-3.71 1.193-8.17.299-10.097-2.144-2.324-2.946-2.637-5.389-2.889-7.352-.35-2.731-.81-4.55-4.793-4.997 9.207-7.271 16.664-2.397 18.422-1.03a29.046 29.046 0 0 1-.582 1.782c-.972 2.772-2.183 6.222-.677 11.96zm12.947 6.727c-5.348.907-8.686-1.558-10.364-4.742-.007-.02-.004-.042-.013-.062-.02-.046-.055-.079-.082-.12a11.474 11.474 0 0 1-.844-2.235c-1.373-5.233-.304-8.278.638-10.964 1.058-3.012 1.981-5.646-1.142-9.785 4.363-.732 8.516.474 12.358 3.603 3.217 2.62 4.999 5.669 5.016 5.7a.835.835 0 0 0 .614.402c-.145.294-.295.592-.446.893-1.744 3.479-3.72 7.42-2.85 12.331a19.82 19.82 0 0 0 1.041 3.708c-.782.546-1.546.862-3.926 1.27zm19.688 6.48c-3.499.653-6.59.078-9.18-1.714-3.022-2.09-5.19-5.75-5.95-10.042-.77-4.355.993-7.87 2.698-11.271 2.267-4.525 4.607-9.193-.468-14.818 11.18-.86 18.933 7.559 20.79 9.804-3.8 3.94-8.183 8.9-8.183 17.3 0 4.082.827 7.445 2.434 10.074-.75.315-1.468.54-2.14.666zm24.166.867c-3.338 3.022-7.765 3.104-9.025 3.06-.065-.008-.127-.025-.194-.018l-.08.006-.083-.006c-.068-.007-.13.01-.194.02-1.259.043-5.686-.038-9.026-3.062-2.758-2.496-4.155-6.402-4.155-11.608 0-8.18 4.427-12.742 8.334-16.768 2.06-2.123 4.039-4.168 5.122-6.54 1.083 2.372 3.062 4.417 5.122 6.54 3.907 4.026 8.335 8.588 8.335 16.768 0 5.206-1.398 9.112-4.156 11.608zm20.693-12.623c-.76 4.292-2.928 7.952-5.95 10.042-2.591 1.792-5.681 2.369-9.18 1.713a10.722 10.722 0 0 1-2.14-.665c1.607-2.63 2.434-5.992 2.434-10.075 0-8.409-4.392-13.37-8.195-17.311 1.882-2.264 9.653-10.652 20.801-9.793-5.075 5.625-2.735 10.293-.466 14.817 1.704 3.4 3.466 6.917 2.696 11.272zm15.862-1.883a11.48 11.48 0 0 1-.844 2.233c-.027.042-.063.075-.083.122-.008.02-.006.042-.013.063-1.678 3.184-5.016 5.647-10.362 4.74-2.38-.408-3.146-.724-3.928-1.27a19.827 19.827 0 0 0 1.042-3.708c.87-4.911-1.107-8.853-2.85-12.331-.151-.3-.3-.598-.445-.891a.835.835 0 0 0 .614-.406c.066-.115 6.532-11.09 17.371-9.299-3.121 4.138-2.197 6.77-1.14 9.783.942 2.686 2.011 5.731.638 10.964zm14.014-7.282c-.252 1.963-.565 4.406-2.889 7.352-1.928 2.442-6.387 3.337-10.097 2.144.252-.59.46-1.188.617-1.782 1.505-5.737.295-9.187-.678-11.959a29.266 29.266 0 0 1-.582-1.782c1.76-1.368 9.216-6.242 18.422 1.03-3.984.446-4.444 2.265-4.793 4.997zm14.754-13.294c-.89 5.494-1.456 8.133-4.636 8.134 0 0-1.537.047-2.835.054-9.691-8.775-18.157-4.777-21.22-2.766-.042-1.588.578-3.254 2.605-5.578a.851.851 0 0 0-.43-1.383c-11.913-3.04-19.33 7.812-20.445 9.575-1.718-3.821-2.255-7.228 2.465-11.639 5.473-3.788 19.645-5.874 39.93-5.874 3.122 0 5.385-.211 6.983-.704-1.353 3.676-1.94 7.23-2.417 10.181zm2.47-17.216c1.41 1.34 1.451 2.728 1.451 2.881 0 1.48 0 3.157-8.488 3.157-5.37 0-11.325.146-17.077.583 1.582-3.443 1.718-5.095 1.957-8.055.084-1.04.182-2.232.352-3.71 1.729 1.974 5.245 2.842 10.452 2.573 4.433-.229 7.301.359 9.163 1.174l.045.02c.96.426 1.654.911 2.144 1.377zm1.062-9.196c-1.594 1.664-3.23 3.38-3.644 5.828-2.326-.777-5.28-1.085-8.859-.902-5.91.312-8.24-.95-9.155-2.06-.706-.855-.889-1.999-.543-3.399.333-1.346 1.218-2.466 2.494-3.153 1.443-.779 4.082-1.378 8.458.17 5.48 1.939 10.25 2.421 13.14 1.38-.554.734-1.212 1.428-1.891 2.136z"/><path d="M154.693 127.057a.854.854 0 0 0-.987.687l-.915 5.093a.85.85 0 0 0 1.674.301l.915-5.094a.85.85 0 0 0-.687-.987zm-7.916.341a.85.85 0 0 0-.821.878l.08 2.391a.85.85 0 0 0 .848.823l.029-.001a.85.85 0 0 0 .821-.878l-.079-2.392c-.014-.47-.39-.856-.878-.821zM106.43 68.154a26.769 26.769 0 0 0-3.889-3.87c-.028-.023-.06-.036-.09-.056a26.372 26.372 0 0 0-13.774-5.686h-.004l-.009-.002c-.454-.047-.91-.084-1.371-.108h-.008a26.778 26.778 0 0 0-2.778-.001c-.06.003-.119.01-.178.013-.399.024-.796.053-1.19.093l-.022.002-.01.002a26.364 26.364 0 0 0-13.712 5.636c-.03.02-.063.034-.091.057-.085.068-.166.142-.25.211l-.036.031a26.65 26.65 0 0 0-3.665 3.675c-.026.032-.041.068-.064.101a26.369 26.369 0 0 0-5.73 13.715c0 .004-.003.008-.003.011l-.003.028c-.05.47-.09.943-.117 1.42l-.002.022a26.722 26.722 0 0 0-.007 2.76c.013.268.038.534.059.8.012.157.02.316.035.472l.002.009a26.36 26.36 0 0 0 5.65 13.891c.021.033.036.068.06.099a26.774 26.774 0 0 0 3.8 3.856c.022.018.05.025.074.042a26.376 26.376 0 0 0 13.992 5.861c.005 0 .01.003.014.004l.032.002a26.688 26.688 0 0 0 4.044.11c.255-.013.507-.036.76-.056.168-.013.336-.02.503-.036.005 0 .01-.002.014-.003a26.375 26.375 0 0 0 14.09-5.79c.023-.015.051-.022.073-.04.073-.06.137-.129.21-.19a26.712 26.712 0 0 0 2.034-1.888c.454-.467.893-.95 1.312-1.448.07-.084.151-.159.22-.243.024-.03.038-.064.059-.095a26.362 26.362 0 0 0 5.925-16.675c0-.925-.048-1.838-.14-2.739l-.001-.003a26.367 26.367 0 0 0-5.76-13.903c-.02-.03-.034-.063-.057-.09zm-5.002-1.462a23.431 23.431 0 0 1 1.665 1.565c.229.236.454.476.672.721.088.098.172.198.258.298-.052.2-.102.402-.153.609-.318 1.309-.62 2.546-1.86 3.785-1.09 1.09-2.056 1.343-3.28 1.664-1.127.295-2.375.622-3.71 1.636l-1.277-1.277c1.014-1.336 1.34-2.584 1.636-3.71.32-1.224.573-2.19 1.665-3.282 1.238-1.239 2.477-1.54 3.789-1.86.201-.05.4-.098.596-.149zM79.01 90.738a5.743 5.743 0 0 1 5.959-4.756 8.216 8.216 0 0 0 4.014 3.892 8.247 8.247 0 0 0 3.414.744c.208 0 .417-.013.626-.029a9.202 9.202 0 0 1-2.331 2.073l-.003.002a9.049 9.049 0 0 1-2.727 1.131 8.923 8.923 0 0 1-4.174.001h-.002a9.066 9.066 0 0 1-2.728-1.134h-.001a9.176 9.176 0 0 1-2.09-1.805c.011-.041.035-.076.043-.12zm-1.741-2.77a9.09 9.09 0 0 1-.3-.989l-.001-.002a9.202 9.202 0 0 1-.248-2.087 9.3 9.3 0 0 1 .248-2.086 9.033 9.033 0 0 1 1.134-2.728v-.002a9.236 9.236 0 0 1 2.955-2.954 9.072 9.072 0 0 1 2.73-1.134c.188-.044.372-.066.558-.099a5.695 5.695 0 0 1 1.936 3.913c.09 1.314-.289 2.576-1.03 3.642-3.365-.244-6.5 1.6-7.982 4.526zm12.766-.417c-1.185-.538-2.11-1.456-2.698-2.596a8.212 8.212 0 0 0 1.49-5.329 8.233 8.233 0 0 0-1.162-3.693c.099.02.196.03.295.053h.002a9.089 9.089 0 0 1 2.728 1.131l.001.002a9.224 9.224 0 0 1 2.955 2.953 9.048 9.048 0 0 1 1.133 2.732v.002a9.11 9.11 0 0 1 .251 2.084c0 .688-.082 1.37-.25 2.088l-.002.002a9.104 9.104 0 0 1-.19.687c-.056.013-.113.007-.168.027a5.693 5.693 0 0 1-4.385-.143zm.517-17.37c.659-1.179 1.405-2.516 1.405-4.685 0-1.69-.453-2.959-.985-4.003a23.81 23.81 0 0 1 7.844 3.255c-1.129.36-2.365.937-3.576 2.15-1.58 1.579-1.978 3.098-2.329 4.438-.298 1.138-.568 2.134-1.554 3.23a11.608 11.608 0 0 0-1.913-.814c.01-1.581.518-2.514 1.108-3.57zM83.745 61.5c.097-.16.193-.318.286-.475l.19-.015a24.005 24.005 0 0 1 3.363.002l.174.013c.092.157.188.314.285.474.701 1.153 1.363 2.243 1.363 3.997 0 1.505-.5 2.403-1.082 3.442-.585 1.048-1.232 2.208-1.398 3.967h-1.798c-.28-1.71-.956-2.845-1.565-3.868-.66-1.109-1.182-1.984-1.182-3.541 0-1.754.663-2.843 1.364-3.996zm-2.928-.009c-.533 1.044-.987 2.314-.987 4.005 0 2.259.819 3.633 1.54 4.846.598 1.002 1.12 1.886 1.286 3.312a11.6 11.6 0 0 0-2.212.883c-1.019-1.114-1.293-2.121-1.595-3.274-.352-1.34-.75-2.86-2.328-4.439-1.18-1.18-2.383-1.757-3.487-2.12a23.803 23.803 0 0 1 7.783-3.213zm-12.79 7.475a24.134 24.134 0 0 1 2.09-2.07c.098-.086.197-.172.296-.256.17.043.341.086.516.128 1.31.32 2.548.621 3.787 1.86 1.09 1.09 1.344 2.058 1.665 3.281.295 1.127.622 2.374 1.635 3.71l-1.276 1.277c-1.336-1.014-2.584-1.34-3.71-1.636-1.224-.32-2.19-.573-3.282-1.665-1.24-1.239-1.541-2.477-1.86-3.788-.044-.179-.087-.355-.132-.528.09-.105.18-.21.272-.313zm-2.217 2.903c.361 1.116.938 2.334 2.134 3.53 1.58 1.58 3.099 1.978 4.44 2.329 1.14.298 2.137.57 3.235 1.558a11.54 11.54 0 0 0-.895 2.072c-1.48-.076-2.378-.59-3.397-1.186-1.195-.698-2.55-1.49-4.784-1.49-1.7 0-2.973.458-4.02.994a23.805 23.805 0 0 1 3.287-7.807zM62 86.428a23.497 23.497 0 0 1-.055-1.538c0-.605.03-1.224.079-1.847l.01-.138c.17-.1.342-.204.516-.31 1.152-.7 2.242-1.362 3.994-1.362 1.542 0 2.405.504 3.497 1.142 1.005.587 2.12 1.238 3.78 1.465v1.807c-1.662.228-2.775.88-3.78 1.468-1.093.638-1.955 1.143-3.497 1.143-1.75 0-2.839-.662-3.991-1.362a36.78 36.78 0 0 0-.542-.326L62 86.428zm3.707 11.32a23.8 23.8 0 0 1-3.26-7.973c1.062.553 2.356 1.034 4.097 1.034 2.233 0 3.589-.793 4.785-1.493 1-.585 1.882-1.093 3.315-1.183.215.74.495 1.46.852 2.144-1.079.953-2.063 1.218-3.184 1.513-1.34.351-2.859.749-4.439 2.328-1.231 1.232-1.807 2.488-2.166 3.63zm4.457 5.176c-.11-.097-.224-.19-.332-.288-.1-.09-.197-.186-.295-.278a24.181 24.181 0 0 1-1.889-1.982c.058-.218.113-.44.168-.667.32-1.31.622-2.548 1.862-3.787 1.09-1.09 2.056-1.344 3.28-1.665 1.126-.295 2.374-.622 3.709-1.635l1.277 1.277c-1.013 1.336-1.34 2.583-1.635 3.71-.32 1.223-.575 2.19-1.665 3.281-1.238 1.238-2.476 1.54-3.786 1.86-.229.055-.46.112-.694.174zm10.65 5.365a23.812 23.812 0 0 1-8.076-3.403c1.164-.357 2.45-.932 3.71-2.192 1.58-1.58 1.977-3.099 2.328-4.439.29-1.102.548-2.071 1.46-3.128.69.382 1.413.695 2.165.93-.1 1.397-.604 2.267-1.18 3.254-.699 1.196-1.49 2.552-1.49 4.785 0 1.793.509 3.115 1.083 4.193zm7.13-.204c-.137.225-.276.454-.41.688l-.133.01a24.28 24.28 0 0 1-1.591.05l-.11-.002a24.202 24.202 0 0 1-1.467-.06l-.19-.014c-.13-.228-.266-.45-.4-.67-.7-1.152-1.362-2.24-1.362-3.99 0-1.544.504-2.406 1.143-3.499.587-1.005 1.238-2.118 1.465-3.78h1.807c.228 1.662.878 2.776 1.466 3.781.639 1.092 1.144 1.955 1.144 3.497 0 1.751-.662 2.838-1.363 3.99zm2.802.255c.586-1.087 1.11-2.423 1.11-4.244 0-2.233-.792-3.589-1.492-4.785-.57-.976-1.07-1.837-1.178-3.21a11.583 11.583 0 0 0 2.194-.898c.911 1.055 1.17 2.024 1.458 3.126.352 1.34.75 2.858 2.33 4.438 1.273 1.273 2.574 1.847 3.746 2.203a23.812 23.812 0 0 1-8.168 3.37zm12.947-7.453c-.121.134-.246.265-.37.397-.331.351-.672.692-1.023 1.023-.146.138-.291.276-.44.41-.114.1-.23.198-.344.297-.254-.07-.507-.131-.756-.192-1.312-.32-2.55-.621-3.79-1.86-1.09-1.09-1.343-2.056-1.664-3.28-.295-1.126-.623-2.374-1.635-3.709l1.277-1.278c1.336 1.014 2.583 1.34 3.71 1.636 1.223.32 2.189.574 3.28 1.665 1.239 1.238 1.54 2.475 1.859 3.785.06.251.124.507.193.763-.099.114-.196.23-.297.343zm2.256-2.938c-.355-1.175-.93-2.48-2.207-3.758-1.58-1.58-3.098-1.978-4.438-2.328-1.1-.289-2.068-.547-3.123-1.455.372-.692.67-1.418.895-2.17 1.415.095 2.291.6 3.283 1.18 1.197.7 2.552 1.492 4.786 1.492 1.786 0 3.103-.505 4.179-1.077a23.804 23.804 0 0 1-3.375 8.116zm3.828-14.703c.038.551.063 1.103.063 1.644 0 .523-.023 1.055-.059 1.586l-.01.142c-.216.124-.427.252-.634.379-1.153.7-2.24 1.362-3.992 1.362-1.543 0-2.406-.504-3.498-1.143-1.005-.587-2.119-1.238-3.78-1.465v-1.807c1.662-.228 2.776-.88 3.78-1.467 1.092-.64 1.955-1.144 3.498-1.144 1.75 0 2.84.662 3.99 1.363.207.126.415.253.629.376.004.058.01.116.013.174zm-4.632-4.464c-2.235 0-3.59.793-4.786 1.492-.998.584-1.879 1.092-3.307 1.183a11.57 11.57 0 0 0-.889-2.116c1.09-.974 2.082-1.243 3.215-1.54 1.34-.35 2.86-.748 4.439-2.327 1.222-1.223 1.797-2.47 2.157-3.604a23.802 23.802 0 0 1 3.327 7.977c-1.072-.567-2.383-1.065-4.156-1.065z"/><path d="M85.89 48.866c-19.865 0-36.025 16.16-36.025 36.024 0 19.863 16.16 36.023 36.025 36.023s36.025-16.16 36.025-36.023c0-19.864-16.161-36.024-36.025-36.024zm0 69.497c-18.457 0-33.474-15.016-33.474-33.473S67.433 51.417 85.89 51.417c18.458 0 33.474 15.016 33.474 33.473s-15.016 33.473-33.474 33.473z"/></g></svg>