<svg version="1.1" id="category-emblem-study" xmlns="http://www.w3.org/2000/svg" x="0" y="0" viewBox="0 0 171.7803 171.7817" xml:space="preserve"><style type="text/css"><![CDATA[
	.css-to-be-replaced{}
  ]]></style><g fill="#D09000"><path d="M133.996 78.274a.85.85 0 0 0 .972.707l35.048-5.552c.464-.073.78-.509.707-.973s-.509-.787-.973-.707l-35.047 5.552a.85.85 0 0 0-.707.973zm36.934 6.769h-35.487a.85.85 0 0 0 0 1.7h35.487a.85.85 0 0 0 0-1.7zM78.137 37.796a.85.85 0 0 0 .84-.983l-5.55-35.048a.85.85 0 1 0-1.68.266l5.551 35.048a.85.85 0 0 0 .84.717zm22.804 1.774a.85.85 0 0 0 1.071-.546l10.966-33.75a.85.85 0 1 0-1.617-.524l-10.966 33.749a.85.85 0 0 0 .546 1.071zm7.058 2.93a.85.85 0 0 0 1.144-.372l16.114-31.622a.85.85 0 0 0-1.516-.773l-16.114 31.623A.851.851 0 0 0 108 42.5zM93.51 37.786a.85.85 0 0 0 .973-.707l5.552-35.05a.85.85 0 1 0-1.68-.265l-5.552 35.049a.85.85 0 0 0 .707.973zm-7.62-.598c.47 0 .85-.38.85-.85V.85a.85.85 0 0 0-1.7 0v35.486c0 .47.38.851.85.851zm43.39 26.596a.851.851 0 0 0 1.145.372l31.623-16.114a.851.851 0 0 0-.773-1.515L129.652 62.64a.85.85 0 0 0-.371 1.144zm-14.767-17.287a.85.85 0 0 0 1.188-.188l20.864-28.717a.85.85 0 0 0-1.376-1l-20.864 28.717a.85.85 0 0 0 .188 1.188zm10.772 10.773a.85.85 0 0 0 1.188.188l28.717-20.864a.85.85 0 0 0-1-1.376l-28.717 20.864a.85.85 0 0 0-.188 1.188zm-4.956-5.816a.845.845 0 0 0 1.202 0l25.094-25.095a.849.849 0 1 0-1.203-1.202L120.33 50.251a.85.85 0 0 0 0 1.203zm11.881 19.388a.85.85 0 0 0 1.072.546l33.749-10.966a.85.85 0 1 0-.526-1.617L132.757 69.77a.85.85 0 0 0-.546 1.07zM37.188 85.891a.85.85 0 0 0-.851-.85H.85a.85.85 0 0 0 0 1.7h35.486c.47 0 .85-.38.85-.85zM1.765 73.43l35.047 5.549a.85.85 0 0 0 .266-1.68L2.03 71.75a.85.85 0 1 0-.266 1.68zM4.75 60.422l33.748 10.966a.85.85 0 0 0 .525-1.617L5.276 58.804a.85.85 0 1 0-.525 1.617zM9.733 48.04l31.622 16.116a.85.85 0 1 0 .773-1.516L10.505 46.525a.85.85 0 1 0-.773 1.516zm46.347-1.732a.85.85 0 1 0 1.377-1L36.594 16.592a.851.851 0 0 0-1.376 1L56.08 46.308zm6.558-4.18a.851.851 0 0 0 1.516-.772L48.04 9.733a.851.851 0 0 0-1.516.773l16.113 31.622zm-17.33 15.331a.85.85 0 0 0 1-1.376L17.591 35.216a.85.85 0 1 0-1 1.376l28.717 20.865zm4.942-6.006a.847.847 0 0 0 1.202 0 .85.85 0 0 0 0-1.203L26.36 25.156a.85.85 0 1 0-1.203 1.202l25.092 25.095zm19.519-12.429a.85.85 0 1 0 1.617-.525L60.42 4.749a.85.85 0 1 0-1.617.525l10.966 33.75zm-52.68 88.033a.85.85 0 0 0-.687.987l.915 5.094a.85.85 0 0 0 1.674-.3l-.915-5.094a.853.853 0 0 0-.987-.687zm7.916.341l-.029-.001a.85.85 0 0 0-.85.822l-.079 2.392a.85.85 0 0 0 1.7.056l.08-2.391a.85.85 0 0 0-.822-.878zm6.852 2.78a.85.85 0 0 0 .806-1.121l-.072-.217a.85.85 0 0 0-1.612.541l.072.217c.12.356.451.58.806.58z"/><path d="M163.638 94.198a.85.85 0 0 0 0 1.701c1.785 0 3.7 1.125 3.729 3.584-.116.85-.522 1.486-1.248 1.937-2.207 1.373-7.094.976-12.753-1.026-4.963-1.756-8.087-1.005-9.832-.063-1.703.917-2.89 2.423-3.34 4.242a7.805 7.805 0 0 0-.109.55c0 .004-.003.006-.004.01l-.006.042a92.443 92.443 0 0 0-.942 7.965c-.256 3.178-.373 4.568-2.219 8.352-8.98.798-17.219 2.368-21.631 5.282-12.507-1.806-21.275 7.314-23.618 10.087-2.698-2.794-4.923-5.298-4.923-8.542a.85.85 0 0 0-1.702 0c0 3.249-2.231 5.756-4.935 8.554-2.323-2.757-11.082-11.908-23.606-10.1-4.412-2.913-12.652-4.483-21.632-5.28-1.845-3.784-1.962-5.175-2.218-8.353a92.443 92.443 0 0 0-.942-7.965l-.006-.042c0-.004-.003-.006-.004-.01a7.81 7.81 0 0 0-.11-.55c-.45-1.819-1.635-3.325-3.34-4.242-1.745-.942-4.868-1.693-9.83.063-5.662 2.004-10.548 2.399-12.754 1.027-.727-.452-1.133-1.088-1.248-1.938.028-2.46 1.944-3.584 3.729-3.584a.85.85 0 0 0 0-1.701c-2.7 0-5.435 1.833-5.435 5.336 0 .032.007.06.007.093v.008l.001.01c.046 3.128 1.945 5.121 3.79 7.046 1.557 1.625 3.018 3.175 3.233 5.322-.81.41-1.517.897-2.114 1.463-1.461 1.388-1.982 3.036-1.982 4.115 0 1.074.232 1.933.746 2.616 1.944 4.252 2.64 8.542 3.198 11.99.864 5.344 1.547 9.563 6.262 9.562 0 0 1.836.058 3.207.058 4.813 0 4.94.985 5.277 3.62.264 2.057.625 4.873 3.24 8.187 1.687 2.14 4.789 3.325 8.02 3.325 1.407 0 2.835-.242 4.186-.712 1.746 2.925 4.813 5.316 9.383 5.316.777 0 1.597-.07 2.46-.217 2.22-.38 3.318-.721 4.337-1.37 1.206 2.418 2.883 4.452 4.918 5.86 2.194 1.517 4.68 2.28 7.421 2.28.982 0 1.996-.098 3.042-.294.891-.168 1.84-.481 2.823-.92.402.494.827.965 1.3 1.39 3.452 3.117 7.773 3.5 9.692 3.5.32 0 .564-.01.735-.021.171.01.415.02.735.02 1.919 0 6.24-.383 9.693-3.498.472-.426.897-.897 1.298-1.39.984.437 1.933.751 2.825.919 1.045.196 2.059.294 3.04.294 2.741 0 5.228-.763 7.422-2.28 2.035-1.408 3.712-3.442 4.917-5.86 1.02.649 2.118.99 4.338 1.37.864.148 1.683.217 2.46.217 4.569 0 7.636-2.391 9.382-5.316 1.351.471 2.78.712 4.188.712 3.23 0 6.331-1.186 8.018-3.325 2.616-3.314 2.977-6.13 3.24-8.188.338-2.634.464-3.62 5.277-3.62 1.365 0 3.187-.056 3.182-.056 4.74 0 5.423-4.22 6.288-9.562.558-3.449 1.253-7.738 3.197-11.989.514-.684.747-1.543.747-2.618 0-1.079-.52-2.727-1.982-4.115a8.895 8.895 0 0 0-2.114-1.463c.215-2.147 1.676-3.697 3.233-5.322 1.844-1.925 3.744-3.918 3.79-7.047l.001-.009v-.008c0-.032.007-.06.007-.093 0-3.503-2.734-5.336-5.435-5.336zM7.735 105.514c-.679-.708-1.338-1.402-1.891-2.137 2.89 1.042 7.66.56 13.14-1.38 4.376-1.547 7.015-.947 8.457-.17 1.276.688 2.163 1.808 2.495 3.154.346 1.4.164 2.544-.543 3.4-.915 1.109-3.251 2.365-9.155 2.059-3.578-.183-6.532.125-8.859.902-.415-2.449-2.05-4.164-3.644-5.828zm-.39 12.077c0-.153.04-1.54 1.452-2.881.49-.465 1.183-.95 2.143-1.377a.763.763 0 0 0 .05-.022c1.862-.814 4.729-1.401 9.16-1.172 5.217.269 8.723-.6 10.452-2.574.17 1.48.268 2.672.352 3.712.239 2.96.375 4.611 1.956 8.055-5.751-.438-11.706-.584-17.076-.584-8.489 0-8.489-1.677-8.489-3.157zm11.393 22.523a134.335 134.335 0 0 1-2.862-.055c-3.153 0-3.72-2.64-4.609-8.133-.478-2.952-1.064-6.505-2.417-10.182 1.597.494 3.86.705 6.984.705 20.287 0 34.46 2.087 39.931 5.876 4.718 4.41 4.18 7.816 2.463 11.637-1.115-1.764-8.539-12.619-20.445-9.575a.852.852 0 0 0-.43 1.383c2.027 2.325 2.647 3.99 2.604 5.578-3.062-2.01-11.53-6.008-21.219 2.766zm19.653 12.82c.156.594.364 1.192.616 1.782-3.71 1.195-8.168.3-10.097-2.144-2.324-2.945-2.637-5.389-2.889-7.352-.35-2.731-.81-4.55-4.793-4.997 9.206-7.273 16.663-2.398 18.422-1.03a28.97 28.97 0 0 1-.582 1.782c-.972 2.772-2.183 6.222-.677 11.96zm12.947 6.727c-5.345.909-8.685-1.556-10.363-4.742-.007-.02-.005-.042-.013-.062-.02-.046-.055-.079-.082-.12a11.48 11.48 0 0 1-.844-2.235c-1.374-5.233-.305-8.278.637-10.964 1.057-3.012 1.982-5.646-1.142-9.785 4.367-.733 8.515.474 12.358 3.603 3.216 2.619 4.998 5.669 5.016 5.7a.837.837 0 0 0 .614.402l-.446.893c-1.744 3.478-3.72 7.42-2.85 12.331a19.78 19.78 0 0 0 1.042 3.708c-.782.546-1.547.862-3.927 1.27zm19.689 6.48c-3.503.653-6.59.078-9.18-1.714-3.022-2.09-5.19-5.75-5.95-10.042-.77-4.355.992-7.872 2.697-11.271 2.268-4.525 4.608-9.193-.468-14.818 11.176-.86 18.933 7.56 20.79 9.805-3.8 3.94-8.183 8.9-8.183 17.299 0 4.082.827 7.446 2.434 10.074-.75.315-1.468.54-2.14.666zm24.165.867c-3.355 3.039-7.81 3.106-9.045 3.06-.058-.006-.113-.023-.174-.018l-.082.006-.082-.006c-.06-.006-.117.012-.175.019-1.237.045-5.69-.023-9.044-3.06-2.758-2.497-4.156-6.403-4.156-11.61 0-8.179 4.428-12.741 8.335-16.767 2.06-2.123 4.04-4.168 5.122-6.54 1.083 2.372 3.062 4.417 5.122 6.54 3.907 4.026 8.335 8.588 8.335 16.768 0 5.206-1.398 9.112-4.156 11.608zm20.693-12.623c-.76 4.292-2.927 7.952-5.949 10.042-2.592 1.792-5.682 2.369-9.18 1.713a10.716 10.716 0 0 1-2.141-.665c1.607-2.63 2.434-5.992 2.434-10.075 0-8.41-4.393-13.37-8.196-17.312 1.88-2.265 9.635-10.65 20.803-9.792-5.075 5.625-2.735 10.293-.467 14.818 1.704 3.4 3.467 6.916 2.696 11.271zm15.862-1.883c-.2.76-.482 1.516-.846 2.238-.026.04-.061.072-.08.117-.01.02-.006.041-.013.062-1.68 3.184-5.02 5.65-10.363 4.742-2.38-.409-3.145-.725-3.927-1.271a19.846 19.846 0 0 0 1.042-3.708c.869-4.911-1.107-8.852-2.851-12.331-.151-.301-.3-.598-.445-.892a.839.839 0 0 0 .614-.405c.066-.115 6.532-11.095 17.371-9.299-3.122 4.138-2.197 6.77-1.14 9.782.942 2.687 2.011 5.732.638 10.965zm14.014-7.282c-.252 1.963-.565 4.406-2.888 7.352-1.93 2.442-6.388 3.337-10.098 2.144.252-.59.461-1.188.617-1.782 1.505-5.737.294-9.187-.679-11.96a29.01 29.01 0 0 1-.581-1.781c1.759-1.369 9.214-6.243 18.422 1.03-3.983.446-4.443 2.265-4.793 4.997zm14.754-13.294c-.889 5.494-1.455 8.133-4.636 8.134 0 0-1.538.047-2.836.054-9.69-8.777-18.156-4.777-21.218-2.766-.043-1.587.577-3.254 2.604-5.578a.85.85 0 0 0-.43-1.383c-11.908-3.038-19.33 7.812-20.445 9.575-1.717-3.82-2.255-7.227 2.463-11.637 5.471-3.79 19.644-5.876 39.931-5.876 3.123 0 5.387-.211 6.984-.704-1.353 3.676-1.94 7.23-2.417 10.181zm2.47-17.216c1.411 1.34 1.452 2.728 1.452 2.881 0 1.48 0 3.157-8.489 3.157-5.37 0-11.325.146-17.076.583 1.58-3.443 1.717-5.094 1.956-8.054.084-1.04.182-2.233.353-3.712 1.727 1.975 5.237 2.842 10.45 2.574 4.433-.228 7.3.358 9.162 1.173l.048.02c.96.427 1.654.912 2.144 1.378zm1.062-9.196c-1.594 1.664-3.23 3.38-3.644 5.829-2.327-.778-5.282-1.086-8.859-.903-5.912.307-8.24-.95-9.155-2.059-.706-.856-.889-2-.543-3.4.333-1.346 1.219-2.466 2.495-3.153 1.443-.778 4.08-1.38 8.457.17 5.48 1.938 10.25 2.421 13.14 1.379-.554.735-1.212 1.429-1.89 2.137z"/><path d="M154.693 127.057a.855.855 0 0 0-.987.687l-.914 5.093a.85.85 0 0 0 1.673.301l.915-5.094a.85.85 0 0 0-.687-.987zm-7.887.34l-.029.001a.85.85 0 0 0-.821.878l.079 2.391a.85.85 0 0 0 .85.823l.028-.001a.85.85 0 0 0 .822-.878l-.08-2.392a.85.85 0 0 0-.849-.822zM77.035 63.628c-.36.3-.667.599-.946.895-.824.608-1.638 1.193-2.404 1.743-2.18 1.563-4.062 2.913-5.23 4.08l-.653.65c-2.135 2.122-5.11 5.094-7.708 8.88-.018.03-.047.046-.063.077l-.037.071c-2.507 3.69-4.626 8.156-5.271 13.385-.006.048-.029.09-.029.14l.002.065a26.303 26.303 0 0 0-.194 3.038c0 5.167 1.755 9.147 5.218 11.831 3.926 3.043 9.428 3.905 14.403 3.905 4.395 0 8.37-.672 10.493-1.109v1.45a1.275 1.275 0 0 0 2.55 0v-1.45c2.123.437 6.098 1.11 10.493 1.11 4.974 0 10.476-.864 14.402-3.906 3.463-2.683 5.218-6.664 5.218-11.831 0-7.344-3.018-13.337-6.445-17.974l-.064-.105c-.016-.026-.043-.04-.061-.064-2.345-3.141-4.863-5.658-6.735-7.518l-.65-.646c-.608-.609-1.415-1.269-2.354-1.982-.076-.06-.153-.125-.228-.184-.016-.012-.035-.014-.05-.025-.791-.593-1.664-1.22-2.596-1.89-1.056-.756-2.2-1.58-3.339-2.44a1.238 1.238 0 0 0-.478-.364c-3.662-2.81-7.112-5.99-7.112-8.7v-1.018c0-2.317.883-3.958 2.485-4.622 1.419-.589 3.136-.27 4.177.77a1.276 1.276 0 0 0 1.804-1.805c-1.78-1.778-4.576-2.31-6.957-1.322-2.58 1.068-4.06 3.612-4.06 6.98v1.016c0 2.682-3.38 5.824-7 8.614-.207.04-.408.111-.58.255zm10.132-3.207c1.196 1.42 2.71 2.796 4.336 4.106l-4.337 2.72V60.42zM85.89 99.738c.705 0 1.275-.572 1.275-1.276V70.258l6.488-4.069a193.96 193.96 0 0 0 2.954 2.149c.975.699 1.921 1.378 2.755 2.01 2.2 1.76 2.49 2.675 2.452 3.065-.128 1.273-3.443 2.934-7.281 4.856-.724.362-1.486.744-2.282 1.15a1.276 1.276 0 0 0 1.158 2.273c.79-.403 1.547-.782 2.266-1.142 4.523-2.265 7.494-3.758 8.4-5.839 1.457 1.498 3.045 3.245 4.542 5.232.928 1.459.867 2.163.74 2.566-.657 2.085-6.174 4.377-13.81 7.549a1.276 1.276 0 0 0 .98 2.355c8.88-3.689 13.331-5.635 14.85-8.234 1.285 2.334 2.317 4.926 2.879 7.786-.124 3.643-6.181 5.868-20.855 10.37a1.276 1.276 0 0 0 .748 2.439c10.797-3.313 17.456-5.47 20.568-8.351 0 .077.01.151.01.229 0 4.336-1.422 7.638-4.227 9.813-6.774 5.251-19.731 2.97-23.335 2.202v-3.251a1.275 1.275 0 0 0-2.55 0v3.251c-3.601.771-16.55 3.056-23.334-2.2-2.368-1.835-3.738-4.482-4.113-7.866 3.132 2.383 9.491 3.864 20.5 6.201a1.275 1.275 0 0 0 .53-2.496c-17.353-3.683-20.845-5.09-20.95-8.592a25.356 25.356 0 0 1 1.952-7.097c1.65 2.924 6.68 4.347 17.124 7.288l.254-.812.438-1.643c-9.23-2.6-14.8-4.168-15.7-6.283-.357-.84-.052-2.11.958-3.999a44.024 44.024 0 0 1 3.026-3.855c.812 2.844 4.735 4.604 11.662 6.832a1.276 1.276 0 0 0 .781-2.429c-4.683-1.506-9.534-3.295-10.005-5.138-.24-.937.59-2.39 2.532-4.44.955-.95 2.662-2.193 4.51-3.518.796 2.468 4.408 3.884 8.55 5.507.427.167.856.34 1.285.51v23.825c0 .704.57 1.276 1.275 1.276zM84.616 60.42v9.309c.002.013-.002.027 0 .04v2.122l-.353-.14c-3.06-1.199-6.865-2.69-7.084-4.033-.053-.323.164-.768.604-1.275 2.517-1.862 5.037-3.892 6.833-6.023z"/><path d="M76.706 92.687l-.127.406-.22.822z"/></g></svg>