<svg version="1.1" id="category-emblem-international-centers" xmlns="http://www.w3.org/2000/svg" x="0" y="0" viewBox="0 0 171.7803 171.7817" xml:space="preserve"><style type="text/css"><![CDATA[
	.css-to-be-replaced{}
  ]]></style><g fill="#103B80"><path d="M133.996 78.274a.85.85 0 0 0 .973.707l35.047-5.552c.464-.073.78-.509.707-.973s-.511-.787-.973-.707l-35.047 5.552a.85.85 0 0 0-.707.973zm36.934 6.769h-35.487a.85.85 0 0 0 0 1.7h35.487a.85.85 0 0 0 0-1.7zM78.137 37.796a.85.85 0 0 0 .84-.983l-5.55-35.048a.85.85 0 1 0-1.68.266l5.55 35.048a.85.85 0 0 0 .84.717zm22.804 1.774a.85.85 0 0 0 1.072-.546l10.965-33.75a.85.85 0 1 0-1.617-.524l-10.966 33.749a.85.85 0 0 0 .546 1.071zm7.058 2.93a.852.852 0 0 0 1.144-.372l16.114-31.622a.85.85 0 0 0-1.516-.773l-16.114 31.623a.85.85 0 0 0 .372 1.144zM93.51 37.786a.85.85 0 0 0 .973-.707l5.552-35.05a.85.85 0 0 0-1.68-.265l-5.551 35.049a.85.85 0 0 0 .707.973zm-7.62-.598c.47 0 .85-.38.85-.85V.85a.85.85 0 0 0-1.701 0v35.486c0 .47.38.851.85.851zm43.39 26.596a.852.852 0 0 0 1.144.372l31.624-16.114a.85.85 0 0 0-.772-1.515L129.652 62.64a.85.85 0 0 0-.372 1.144zm-14.767-17.287a.847.847 0 0 0 1.187-.188l20.864-28.717a.85.85 0 1 0-1.374-1l-20.865 28.717a.85.85 0 0 0 .188 1.188zm10.772 10.773a.847.847 0 0 0 1.188.188l28.717-20.864a.85.85 0 0 0-1-1.376l-28.717 20.864a.85.85 0 0 0-.188 1.188zm-4.957-5.816a.848.848 0 0 0 1.203 0l25.094-25.095a.85.85 0 1 0-1.203-1.202l-25.094 25.095a.85.85 0 0 0 0 1.202zm11.882 19.388a.85.85 0 0 0 1.072.546l33.748-10.966a.85.85 0 1 0-.525-1.617L132.757 69.77a.85.85 0 0 0-.546 1.07zM37.188 85.891a.85.85 0 0 0-.851-.85H.85a.85.85 0 0 0 0 1.7h35.486c.47 0 .85-.38.85-.85zM1.765 73.43l35.047 5.549a.85.85 0 0 0 .266-1.68L2.03 71.75a.85.85 0 1 0-.266 1.68zM4.75 60.422l33.748 10.966a.85.85 0 1 0 .525-1.618L5.276 58.805a.85.85 0 1 0-.525 1.617zM9.733 48.04l31.623 16.116a.852.852 0 0 0 .771-1.516L10.506 46.525a.85.85 0 1 0-.772 1.516zm46.348-1.732a.847.847 0 0 0 1.188.188.85.85 0 0 0 .187-1.188L36.593 16.592a.85.85 0 1 0-1.375 1L56.08 46.308zm6.557-4.18a.852.852 0 0 0 1.143.372.85.85 0 0 0 .372-1.144L48.041 9.733a.852.852 0 0 0-1.516.773l16.113 31.622zM45.309 57.459a.847.847 0 0 0 1.187-.189.85.85 0 0 0-.187-1.188L17.592 35.218a.85.85 0 1 0-1 1.376l28.717 20.865zm4.941-6.006a.847.847 0 0 0 1.203 0 .85.85 0 0 0 0-1.203L26.36 25.156a.85.85 0 1 0-1.203 1.202L50.25 51.453zm19.519-12.429a.85.85 0 1 0 1.617-.525L60.42 4.749a.85.85 0 0 0-1.617.526l10.966 33.75zm-52.68 88.033a.85.85 0 0 0-.687.987l.915 5.094a.85.85 0 0 0 1.674-.3l-.915-5.094a.852.852 0 0 0-.987-.687zm7.916.341c-.469-.041-.862.352-.878.821l-.08 2.392a.85.85 0 1 0 1.7.056l.08-2.391a.85.85 0 0 0-.822-.878zm6.852 2.78a.85.85 0 0 0 .806-1.123l-.073-.217a.85.85 0 1 0-1.611.545l.073.217a.85.85 0 0 0 .805.578z"/><path d="M163.638 94.198a.85.85 0 0 0 0 1.701c1.785 0 3.7 1.125 3.729 3.583-.115.85-.52 1.487-1.249 1.938-2.207 1.373-7.092.976-12.752-1.026-4.962-1.755-8.085-1.004-9.833-.063-1.703.918-2.889 2.424-3.338 4.242a7.846 7.846 0 0 0-.11.547c0 .005-.003.009-.004.013l-.008.053c-.01.06-.02.12-.028.178a92.818 92.818 0 0 0-.912 7.776c-.256 3.179-.373 4.569-2.218 8.352-8.98.798-17.22 2.368-21.632 5.282-12.503-1.805-21.275 7.315-23.618 10.087-2.699-2.794-4.924-5.298-4.924-8.542a.85.85 0 0 0-1.701 0c0 3.249-2.232 5.756-4.936 8.554-2.323-2.757-11.081-11.905-23.605-10.1-4.412-2.913-12.652-4.483-21.632-5.28-1.845-3.783-1.962-5.174-2.218-8.352a92.871 92.871 0 0 0-.94-7.956l-.008-.052c0-.005-.004-.008-.005-.013a7.841 7.841 0 0 0-.11-.547c-.448-1.819-1.635-3.325-3.34-4.243-1.743-.938-4.864-1.692-9.83.064-5.66 2.002-10.547 2.398-12.753 1.026-.727-.45-1.133-1.087-1.248-1.937.028-2.46 1.944-3.584 3.729-3.584a.85.85 0 0 0 0-1.701c-2.7 0-5.435 1.833-5.435 5.336 0 .032.007.06.007.093v.008l.001.009c.046 3.129 1.945 5.122 3.79 7.047 1.557 1.625 3.018 3.175 3.233 5.322a8.9 8.9 0 0 0-2.114 1.463c-1.461 1.388-1.982 3.036-1.982 4.115 0 1.074.232 1.933.746 2.616 1.944 4.252 2.64 8.542 3.198 11.99.864 5.344 1.547 9.563 6.261 9.562 0 0 1.836.058 3.208.058 4.814 0 4.94.985 5.278 3.619.263 2.058.624 4.874 3.239 8.188 1.688 2.14 4.788 3.325 8.019 3.325 1.408 0 2.836-.24 4.187-.712 1.746 2.925 4.814 5.316 9.383 5.316.776 0 1.597-.07 2.46-.217 2.22-.38 3.318-.721 4.337-1.37 1.206 2.419 2.884 4.453 4.919 5.86 2.194 1.517 4.68 2.28 7.42 2.28a16.5 16.5 0 0 0 3.042-.294c.89-.168 1.839-.481 2.824-.92.402.494.827.965 1.299 1.39 3.452 3.117 7.773 3.5 9.692 3.5.32 0 .564-.01.735-.021.171.01.415.02.735.02 1.919 0 6.24-.383 9.692-3.498.472-.426.897-.897 1.3-1.39.983.438 1.932.751 2.823.919 1.046.196 2.06.294 3.041.294 2.74 0 5.228-.763 7.421-2.28 2.035-1.408 3.713-3.442 4.919-5.86 1.019.649 2.116.99 4.337 1.37.864.148 1.684.217 2.46.217 4.569 0 7.636-2.391 9.382-5.316 1.351.471 2.779.712 4.188.712 3.23 0 6.332-1.186 8.02-3.325 2.614-3.314 2.975-6.13 3.238-8.188.338-2.634.464-3.62 5.278-3.62 1.364 0 3.186-.056 3.18-.056 4.742 0 5.424-4.22 6.288-9.561.56-3.45 1.254-7.74 3.199-11.992.513-.683.746-1.542.746-2.616 0-1.079-.52-2.727-1.983-4.115a8.897 8.897 0 0 0-2.113-1.463c.215-2.147 1.676-3.697 3.233-5.322 1.845-1.924 3.743-3.917 3.79-7.044l.002-.012v-.011c0-.031.006-.059.006-.09 0-3.503-2.734-5.336-5.435-5.336zM7.735 105.514c-.679-.708-1.338-1.402-1.891-2.137 2.889 1.041 7.66.56 13.14-1.38 4.376-1.547 7.014-.947 8.457-.17 1.276.688 2.163 1.807 2.496 3.154.345 1.4.163 2.545-.544 3.4-.915 1.109-3.243 2.37-9.155 2.059-3.576-.182-6.531.125-8.859.903-.414-2.45-2.05-4.165-3.644-5.829zm-.39 12.077c0-.153.04-1.54 1.452-2.881.49-.465 1.183-.95 2.142-1.376l.052-.024c1.862-.814 4.73-1.4 9.16-1.17 5.205.265 8.722-.6 10.45-2.574.171 1.479.27 2.672.353 3.712.238 2.959.375 4.61 1.956 8.053-5.751-.437-11.706-.583-17.076-.583-8.489 0-8.489-1.677-8.489-3.157zm11.395 22.523a133.747 133.747 0 0 1-2.864-.055c-3.153 0-3.72-2.64-4.61-8.133-.477-2.952-1.063-6.505-2.416-10.182 1.597.494 3.86.705 6.984.705 20.284 0 34.456 2.086 39.93 5.874 4.72 4.41 4.182 7.818 2.464 11.638-1.115-1.763-8.536-12.618-20.445-9.574a.852.852 0 0 0-.43 1.383c2.028 2.325 2.648 3.991 2.604 5.579-3.062-2.01-11.53-6.011-21.217 2.765zm19.65 12.82c.156.594.365 1.191.617 1.782-3.71 1.194-8.17.299-10.097-2.144-2.324-2.946-2.637-5.389-2.889-7.352-.35-2.732-.81-4.55-4.793-4.997 9.207-7.274 16.664-2.397 18.422-1.03a29.047 29.047 0 0 1-.582 1.781c-.972 2.773-2.183 6.223-.677 11.96zm12.948 6.727c-5.35.907-8.687-1.558-10.364-4.743-.007-.02-.005-.041-.013-.061-.02-.046-.055-.078-.08-.118a11.486 11.486 0 0 1-.846-2.237c-1.373-5.234-.305-8.278.639-10.964 1.056-3.012 1.981-5.646-1.142-9.785 4.362-.732 8.514.474 12.357 3.603 3.216 2.62 4.999 5.669 5.016 5.7a.835.835 0 0 0 .614.402l-.446.893c-1.744 3.479-3.72 7.42-2.85 12.331a19.83 19.83 0 0 0 1.042 3.708c-.783.546-1.547.862-3.927 1.27zm19.688 6.48c-3.499.653-6.589.078-9.18-1.714-3.02-2.09-5.189-5.75-5.95-10.042-.77-4.355.993-7.87 2.698-11.271 2.268-4.525 4.608-9.193-.467-14.818 11.186-.863 18.934 7.558 20.79 9.804-3.8 3.94-8.184 8.9-8.184 17.3 0 4.082.827 7.446 2.435 10.075-.752.314-1.47.54-2.142.665zm24.166.867c-3.337 3.022-7.764 3.104-9.024 3.06-.065-.008-.127-.025-.195-.018l-.08.006-.083-.006c-.067-.007-.13.01-.193.02-1.258.043-5.686-.037-9.027-3.062-2.758-2.496-4.155-6.402-4.155-11.608 0-8.18 4.427-12.742 8.334-16.768 2.06-2.123 4.039-4.168 5.122-6.54 1.083 2.372 3.062 4.417 5.122 6.54 3.907 4.026 8.335 8.588 8.335 16.768 0 5.206-1.398 9.112-4.156 11.608zm20.694-12.623c-.761 4.292-2.929 7.952-5.95 10.042-2.593 1.794-5.682 2.369-9.18 1.713a10.722 10.722 0 0 1-2.141-.665c1.607-2.63 2.434-5.992 2.434-10.075 0-8.409-4.392-13.37-8.195-17.311 1.882-2.264 9.654-10.652 20.801-9.793-5.075 5.625-2.735 10.293-.466 14.818 1.705 3.4 3.467 6.916 2.697 11.271zm15.861-1.883a11.48 11.48 0 0 1-.844 2.234c-.027.042-.063.074-.083.12-.008.022-.006.043-.013.064-1.678 3.184-5.016 5.647-10.362 4.74-2.38-.408-3.145-.724-3.927-1.27a19.84 19.84 0 0 0 1.042-3.708c.869-4.911-1.107-8.852-2.851-12.331-.15-.3-.3-.598-.445-.891a.836.836 0 0 0 .614-.406c.066-.115 6.532-11.09 17.371-9.299-3.121 4.138-2.197 6.77-1.14 9.783.942 2.686 2.011 5.731.638 10.964zm14.014-7.282c-.252 1.963-.565 4.406-2.889 7.352-1.928 2.442-6.385 3.337-10.097 2.144.252-.59.46-1.188.617-1.782 1.504-5.737.294-9.187-.678-11.959a28.912 28.912 0 0 1-.583-1.784c1.752-1.373 9.186-6.273 18.424 1.032-3.985.445-4.445 2.265-4.794 4.997zm14.754-13.294c-.89 5.494-1.456 8.133-4.636 8.134 0 0-1.538.047-2.836.054-9.689-8.777-18.156-4.777-21.218-2.766-.043-1.587.577-3.253 2.604-5.578a.851.851 0 0 0-.43-1.383c-11.911-3.04-19.33 7.81-20.444 9.574-1.718-3.82-2.256-7.227 2.464-11.638 5.473-3.788 19.646-5.874 39.93-5.874 3.123 0 5.387-.211 6.984-.705-1.354 3.677-1.94 7.23-2.418 10.182zm2.47-17.216c1.41 1.34 1.451 2.728 1.451 2.881 0 1.48 0 3.157-8.488 3.157-5.37 0-11.325.146-17.076.583 1.58-3.443 1.718-5.094 1.956-8.053.084-1.04.182-2.233.353-3.712 1.728 1.974 5.24 2.842 10.45 2.573 4.434-.229 7.302.359 9.163 1.173.016.008.03.015.046.02.96.427 1.654.912 2.144 1.378zm1.063-9.196c-1.595 1.664-3.23 3.38-3.645 5.828-2.326-.777-5.28-1.085-8.859-.902-5.911.313-8.24-.95-9.154-2.059-.707-.855-.89-2-.544-3.4.333-1.346 1.219-2.466 2.494-3.153 1.445-.779 4.085-1.378 8.458.17 5.482 1.939 10.252 2.421 13.14 1.379-.553.735-1.212 1.429-1.89 2.137z"/><path d="M154.693 127.057a.856.856 0 0 0-.987.687l-.915 5.093a.85.85 0 0 0 1.674.301l.915-5.094a.85.85 0 0 0-.687-.987zm-7.916.341a.85.85 0 0 0-.821.878l.08 2.391a.85.85 0 0 0 .848.823l.029-.001a.85.85 0 0 0 .821-.878l-.079-2.392c-.014-.47-.392-.856-.878-.821zM61.176 65.91c.115.601.64 1.036 1.253 1.036h9.417v5.623c-10.973 7.763-23.3 14.613-23.424 14.682a1.276 1.276 0 0 0 .618 2.391h6.067v21.61c0 .704.57 1.275 1.275 1.275h14.83c.704 0 1.275-.571 1.275-1.275V90.345h26.806v20.906c0 .704.571 1.276 1.275 1.276h14.83c.704 0 1.275-.571 1.275-1.276V89.642h6.067a1.276 1.276 0 0 0 .598-2.402c-.125-.067-12.436-6.615-23.403-14.368v-5.926h9.437a1.276 1.276 0 0 0 .33-2.508c-8.762-3.414-22.537-10.51-22.537-15.175a1.275 1.275 0 0 0-2.55 0c0 4.523-13.898 11.737-22.658 15.222a1.276 1.276 0 0 0-.781 1.426zm13.596-4.67c5.647-3.098 9.329-5.894 11.118-8.459 3.147 4.564 11.444 8.96 17.218 11.614H98.66c-.704 0-1.275.57-1.275 1.276v7.86c0 .412.2.799.534 1.038 7.229 5.158 15.131 9.829 19.881 12.523h-2.401c-.705 0-1.276.57-1.276 1.275v21.61h-12.278V90.344h3.507a1.275 1.275 0 0 0 0-2.55H66.43a1.275 1.275 0 0 0 0 2.55h3.506v19.631h-12.28v-21.61c0-.704-.571-1.275-1.275-1.275h-2.555c4.727-2.766 12.726-7.613 20.034-12.825.336-.24.535-.626.535-1.039V65.67c0-.704-.57-1.275-1.275-1.275h-4.598c1.88-.88 4.058-1.954 6.25-3.156z"/><path d="M80.775 66.946h10.232a1.275 1.275 0 0 0 0-2.551H80.775a1.275 1.275 0 0 0 0 2.55z"/></g></svg>