<svg width="25" height="25" viewBox="0 0 25 25" version="1.1" xmlns="http://www.w3.org/2000/svg"><title>Blue_1_</title><g id="03-About" stroke="none" stroke-width="1" fill="none" fill-rule="evenodd"><g id="03_Contribute" transform="translate(-956 -1154)" fill="#646464"><path d="M979.503 1178.876c.758 0 1.373-.614 1.373-1.373v-22.13c0-.758-.615-1.373-1.373-1.373h-22.13c-.758 0-1.373.615-1.373 1.373v22.13c0 .758.614 1.373 1.373 1.373h22.13zm-6.339 0v-9.633h3.234l.484-3.754h-3.718v-2.397c0-1.087.302-1.828 1.86-1.828l1.989-.001v-3.358c-.344-.046-1.524-.148-2.897-.148-2.866 0-4.829 1.75-4.829 4.963v2.769h-3.242v3.754h3.242v9.633h3.877z" id="Blue_1_"/></g></g></svg>